# xmcd CD database file
#
# Track frame offsets:
#	150
#	22247
#	36592
#	49749
#	66113
#	114824
#	144936
#	185826
#	218054
#	245910
#	262664
#
# Disc length: 3797 seconds
#
# Revision: 0
# Processed by: cddbd v1.5.2PL0 Copyright (c) Steve Scherf et al.
# Submitted via: CDex 1.70beta2
#
DISCID=a20ed30b
DTITLE=Various Artist - Beginner Jazz Piano (1955～)
DYEAR=2013
DGENRE=Jazz
TTITLE0=Someday My Prince Will Come
TTITLE1=Round Midnight
TTITLE2=Summertime
TTITLE3=Giant Steps
TTITLE4=This Nearly Was Mine
TTITLE5=Peace Piece
TTITLE6=Fiesta Piano Solo
TTITLE7=Take Five
TTITLE8=Waltz For Debby
TTITLE9=Rhythm-a-Ning
TTITLE10=Requiem
EXTD=YEAR: 2013
EXTT0=
EXTT1=
EXTT2=
EXTT3=
EXTT4=
EXTT5=
EXTT6=
EXTT7=
EXTT8=
EXTT9=
EXTT10=
PLAYORDER=
